<svg xmlns="http://www.w3.org/2000/svg" width="512" height="512" viewBox="0 0 32 32">
  <rect width="32" height="32" rx="7" fill="#1b55f5"/>
  <path fill="#ffffff" d="M16.02 21.42Q17.14 21.42 17.84 21.17Q19.16 20.70 19.16 19.41Q19.16 18.66 18.51 18.25Q17.85 17.85 16.44 17.54L14.83 17.18Q12.47 16.64 11.56 16.02Q10.03 14.97 10.03 12.73Q10.03 10.70 11.51 9.35Q12.99 8.00 15.86 8.00Q18.26 8.00 19.95 9.27Q21.64 10.54 21.73 12.96H18.68Q18.60 11.59 17.49 11.01Q16.75 10.63 15.65 10.63Q14.42 10.63 13.69 11.13Q12.96 11.62 12.96 12.51Q12.96 13.32 13.68 13.72Q14.14 13.99 15.66 14.35L18.27 14.98Q19.99 15.39 20.86 16.08Q22.22 17.15 22.22 19.17Q22.22 21.25 20.63 22.63Q19.04 24.00 16.14 24.00Q13.18 24.00 11.48 22.65Q9.78 21.29 9.78 18.93H12.81Q12.95 19.97 13.37 20.48Q14.14 21.42 16.02 21.42Z"/>
</svg>
